<svg xmlns="http://www.w3.org/2000/svg" xmlns:xlink="http://www.w3.org/1999/xlink" width="309" height="128" viewBox="0 0 309 128">
  <defs>
    <linearGradient id="linear-gradient" y1="0.5" x2="1" y2="0.52" gradientUnits="objectBoundingBox">
      <stop offset="0" stop-color="#0a68f4"/>
      <stop offset="1" stop-color="#1cf3a5"/>
    </linearGradient>
    <clipPath id="clip-pintu-logo">
      <rect width="309" height="128"/>
    </clipPath>
  </defs>
  <g id="pintu-logo" clip-path="url(#clip-pintu-logo)">
    <g id="Group_30" data-name="Group 30" transform="translate(28 38)">
      <path id="Path_156" data-name="Path 156" d="M58.221,0H43A13.6,13.6,0,0,0,29.41,13.591V51.6h8V13.591A5.559,5.559,0,0,1,43,8H58.221a5.559,5.559,0,0,1,5.592,5.592V51.6h8V13.591A13.6,13.6,0,0,0,58.221,0Z" transform="translate(69.548)" fill="url(#linear-gradient)"/>
      <path id="Path_157" data-name="Path 157" d="M13.591.379H32.774A13.6,13.6,0,0,1,46.365,13.97v8A13.6,13.6,0,0,1,32.774,35.56H13.591A5.559,5.559,0,0,0,8,41.152v9.557H0V13.97A13.6,13.6,0,0,1,13.591.379ZM32.774,27.561a5.559,5.559,0,0,0,5.592-5.592v-8a5.559,5.559,0,0,0-5.592-5.592H13.591A5.559,5.559,0,0,0,8,13.97v8a5.559,5.559,0,0,0,5.592,5.592ZM66.539.379h8v50.33h-8ZM244.354,37.117V.379h8V37.117a13.594,13.594,0,0,1-13.591,13.591H227.577a13.6,13.6,0,0,1-13.591-13.591V.379h8V37.117a5.559,5.559,0,0,0,5.592,5.592h11.184A5.56,5.56,0,0,0,244.354,37.117ZM159.483.379v8H168.4a5.575,5.575,0,0,1,5.451,5.592V50.708h8V13.97A5.575,5.575,0,0,1,187.3,8.377h8.919v-8Z" transform="translate(0 0.895)" fill-rule="evenodd"/>
    </g>
  </g>
</svg>
