<svg xmlns="http://www.w3.org/2000/svg" width="516.299" height="430.093" viewBox="0 0 516.299 430.093">
  <g id="Group_25" data-name="Group 25" transform="translate(2071.177 -1517.872)">
    <path id="circle" d="M262.2,2046.455a208.305,208.305,0,1,0-147.316-61A208.45,208.45,0,0,0,262.2,2046.455Z" transform="translate(-2070.982 -98.49)" fill="#f3f3ff"/>
    <g id="Group_28" data-name="Group 28">
      <path id="Path_115" data-name="Path 115" d="M353.67,1997.782,82,1890.509c-6.023-2.341-6.061-12.266,0-16.587,3.409-1.778,116.4-56.568,132.2-91.9l58.561,23.293,58.448,23.282c-13.674,39.115,33.75,157.146,33.75,157.146C366.474,1992.9,359.731,2000.1,353.67,1997.782Z" transform="translate(-2068.024 -79.435)" fill="#fff"/>
      <path id="Path_116" data-name="Path 116" d="M214.23,1781.92c-15.607,35.334-128.714,90.237-132.2,91.711-6.023,4.355-5.985,14.246,0,16.632L353.7,1997.536c6.061,2.385,12.8-4.805,11.364-12.119,0,0-47.539-117.874-33.751-157.371" transform="translate(-2068.017 -79.447)" fill="none" stroke="#222" stroke-linecap="round" stroke-linejoin="round" stroke-width="2"/>
      <path id="Path_117" data-name="Path 117" d="M254.59,1945.952l-45.456-17.9L163.679,1910.1l-13.106,14.156c-5.265,5.57-4.735,15.146.871,17.194l45.456,17.915,45.455,17.9c5.606,2.239,12.386-4.276,12.386-11.928Z" transform="translate(-2059.323 -63.388)" fill="#d7dbff"/>
      <path id="Path_118" data-name="Path 118" d="M254.59,1945.952l-45.456-17.9L163.679,1910.1l-13.106,14.156c-5.265,5.57-4.735,15.146.871,17.194l45.456,17.915,45.455,17.9c5.606,2.239,12.386-4.276,12.386-11.928Z" transform="translate(-2059.323 -63.388)" fill="none" stroke="#222" stroke-linecap="round" stroke-linejoin="round" stroke-width="2"/>
      <path id="Path_119" data-name="Path 119" d="M331.15,1643.081c-24.243-9.576-105.493,89.741-152.54,208.684L299.6,1899.624C346.719,1780.692,355.355,1652.624,331.15,1643.081Z" transform="translate(-2055.353 -96.922)" fill="#fff"/>
      <path id="Path_120" data-name="Path 120" d="M332.37,1738.426a208.581,208.581,0,0,1-82.766-32.633c31.06-42.491,59.773-67.742,72.538-62.712S338.62,1686.134,332.37,1738.426Z" transform="translate(-2046.458 -96.921)" fill="#d7dbff"/>
      <path id="Path_121" data-name="Path 121" d="M276.033,1966.656l26.516-67.033c47.008-118.931,55.644-247,31.439-256.542s-105.38,89.741-152.427,208.684l-26.515,67.067" transform="translate(-2058.305 -96.921)" fill="none" stroke="#222" stroke-linecap="round" stroke-linejoin="round" stroke-width="2"/>
      <path id="Path_122" data-name="Path 122" d="M262.64,1826.051a37.86,37.86,0,1,0-26.785-11.084A37.866,37.866,0,0,0,262.64,1826.051Z" transform="translate(-2049.57 -83.406)" fill="#a7a8fe"/>
      <path id="Path_123" data-name="Path 123" d="M332.37,1731.373A208.586,208.586,0,0,1,249.6,1698.74" transform="translate(-2046.458 -89.868)" fill="none" stroke="#222" stroke-linecap="round" stroke-linejoin="round" stroke-width="2"/>
      <path id="Path_124" data-name="Path 124" d="M240.351,1835.83l-32.387,81.943" transform="translate(-2051.675 -72.693)" fill="none" stroke="#222" stroke-linecap="round" stroke-linejoin="round" stroke-width="2"/>
    </g>
    <g id="btc">
      <path id="Path_125" data-name="Path 125" d="M409.923,1928.775a53.964,53.964,0,1,0-37.879-15.788A53.947,53.947,0,0,0,409.923,1928.775Z" transform="translate(-2033.101 -74.569)" fill="#fff" stroke="#332c2b" stroke-linecap="round" stroke-width="2"/>
      <path id="Path_126" data-name="Path 126" d="M473.791,1847.185a58.628,58.628,0,1,1-12.159-19.276A58.592,58.592,0,0,1,473.791,1847.185Z" transform="translate(-2032.574 -75.979)" fill="#f7931a"/>
      <path id="Path_127" data-name="Path 127" d="M432.7,1843.943c-3.522-7.044-10.758-7.078-18.94-4.738l-3.788-10.105-6.174,2.386,3.788,9.88L402.7,1843.3l-3.788-9.925-6.174,2.352,3.788,10.105-3.788,1.553-8.523,3.263,2.538,6.583s4.508-1.857,4.47-1.744a3.582,3.582,0,0,1,2.576-.225,2.912,2.912,0,0,1,1.175.608,2.855,2.855,0,0,1,.833.99l4.432,11.354h.682l-.682.27,6.174,16.125a2.3,2.3,0,0,1,0,.911,2.246,2.246,0,0,1,0,.866,2.533,2.533,0,0,1-.568.687,2.117,2.117,0,0,1-.8.416l-4.47,1.744,1.591,7.832,8.03-3.061,4.431-1.665,3.789,10.33,6.173-2.341-3.788-10.072,4.963-1.823,3.788,10.071,6.174-2.341-3.788-10.263c10.114-4.591,16.439-9.959,13.6-20.075a11.869,11.869,0,0,0-1.591-4.355,12.307,12.307,0,0,0-3.221-3.331,11.828,11.828,0,0,0-8.9-1.778,10.115,10.115,0,0,0,2.765-5.986,10.316,10.316,0,0,0-1.478-6.4Zm-.266,25.218c2.88,7.573-10.53,11.815-14.7,13.447l-5.19-13.594c4.167-1.6,16.857-7.843,19.886,0ZM422.248,1851.1c2.652,6.965-8.674,10.375-12.083,11.7l-4.735-12.344C408.915,1849.13,419.445,1843.83,422.248,1851.1Z" transform="translate(-2029.593 -73.536)" fill="#fff"/>
    </g>
    <g id="eth">
      <path id="Path_128" data-name="Path 128" d="M66.783,1845.493a55.507,55.507,0,1,0-21.4-4.242A55.526,55.526,0,0,0,66.783,1845.493Z" transform="translate(-2076.331 -85.383)" fill="#fff" stroke="#332c2b" stroke-linecap="round" stroke-width="2"/>
      <path id="Path_129" data-name="Path 129" d="M59.877,1841.5a54.077,54.077,0,1,0-20.72-4.13A54.034,54.034,0,0,0,59.877,1841.5Z" transform="translate(-2077 -85.522)" fill="#4ca4f6"/>
      <g id="Group_13" data-name="Group 13" transform="translate(-2040.684 1689.87)" opacity="0.6">
        <path id="Path_130" data-name="Path 130" d="M59.664,1770.72l-26.743,4.58,20.152,20.289,27.614-7.832Z" transform="translate(-32.921 -1770.72)" fill="#fff" opacity="0.6"/>
      </g>
      <g id="Group_14" data-name="Group 14" transform="translate(-2040.684 1661.051)" opacity="0.45">
        <path id="Path_131" data-name="Path 131" d="M32.921,1778.509,53.073,1798.8,67.24,1745.11Z" transform="translate(-32.921 -1745.11)" fill="#fff" opacity="0.45"/>
      </g>
      <g id="Group_15" data-name="Group 15" transform="translate(-2020.532 1661.119)" opacity="0.8">
        <path id="Path_132" data-name="Path 132" d="M65,1745.17,50.83,1798.835l27.614-7.8Z" transform="translate(-50.83 -1745.17)" fill="#fff" opacity="0.8"/>
      </g>
      <g id="Group_16" data-name="Group 16" transform="translate(-2041.858 1698.996)" opacity="0.45">
        <path id="Path_133" data-name="Path 133" d="M31.878,1778.83,47.03,1818.7l5.114-19.468Z" transform="translate(-31.878 -1778.83)" fill="#fff" opacity="0.45"/>
      </g>
      <g id="Group_17" data-name="Group 17" transform="translate(-2026.782 1711.486)" opacity="0.8">
        <path id="Path_134" data-name="Path 134" d="M50.389,1797.773l-5.114,19.456,32.69-27.3Z" transform="translate(-45.275 -1789.93)" fill="#fff" opacity="0.8"/>
      </g>
      <g id="Group_18" data-name="Group 18" transform="translate(-2040.684 1689.87)" opacity="0.6">
        <path id="Path_135" data-name="Path 135" d="M59.664,1770.72l-26.743,4.58,20.152,20.289,27.614-7.832Z" transform="translate(-32.921 -1770.72)" fill="#fff" opacity="0.6"/>
      </g>
      <g id="Group_19" data-name="Group 19" transform="translate(-2040.684 1661.051)" opacity="0.45">
        <path id="Path_136" data-name="Path 136" d="M32.921,1778.509,53.073,1798.8,67.24,1745.11Z" transform="translate(-32.921 -1745.11)" fill="#fff" opacity="0.45"/>
      </g>
      <g id="Group_20" data-name="Group 20" transform="translate(-2020.532 1661.119)" opacity="0.8">
        <path id="Path_137" data-name="Path 137" d="M65,1745.17,50.83,1798.835l27.614-7.8Z" transform="translate(-50.83 -1745.17)" fill="#fff" opacity="0.8"/>
      </g>
      <g id="Group_21" data-name="Group 21" transform="translate(-2041.858 1698.996)" opacity="0.45">
        <path id="Path_138" data-name="Path 138" d="M31.878,1778.83,47.03,1818.7l5.114-19.468Z" transform="translate(-31.878 -1778.83)" fill="#fff" opacity="0.45"/>
      </g>
      <g id="Group_22" data-name="Group 22" transform="translate(-2026.782 1711.486)" opacity="0.8">
        <path id="Path_139" data-name="Path 139" d="M50.389,1797.773l-5.114,19.456,32.69-27.3Z" transform="translate(-45.275 -1789.93)" fill="#fff" opacity="0.8"/>
      </g>
    </g>
    <g id="dot">
      <path id="Path_140" data-name="Path 140" d="M170.113,1710.96a11.188,11.188,0,1,1,0-.068Z" transform="translate(-2062.007 -99.523)" fill="#fff" stroke="#332c2b" stroke-linecap="round" stroke-width="2"/>
      <path id="Path_141" data-name="Path 141" d="M175.788,1707.926a44.934,44.934,0,1,0-17.263-3.41A45.109,45.109,0,0,0,175.788,1707.926Z" transform="translate(-2061.356 -100)" fill="#e6007a"/>
      <path id="Path_142" data-name="Path 142" d="M166.374,1631.3a22.977,22.977,0,0,0-15.151,28.74,24.557,24.557,0,0,0,3.409,6.74,3.225,3.225,0,0,0,.8.979,4.347,4.347,0,0,0,1.175.416,2.451,2.451,0,0,0,1.212,0,3.058,3.058,0,0,0,1.1-.529,3.321,3.321,0,0,0,1.111-1.463,3.378,3.378,0,0,0,.177-1.834,3.132,3.132,0,0,0-.492-1.137,14.272,14.272,0,0,1-2.614-5.255,16.66,16.66,0,0,1,0-9.43,16.906,16.906,0,0,1,5.265-7.843,16.695,16.695,0,0,1,13.6-3.781,17.032,17.032,0,0,1,6.629,2.8,16.69,16.69,0,0,1,6.136,19.152,15.986,15.986,0,0,1-3.788,6.065,16.342,16.342,0,0,1-5.91,3.781l-4.583,1.823a10.64,10.64,0,0,0-1.59.866h-.266l-.341-2.723-1.212-13.863a3.212,3.212,0,0,0-1.212-1.969,3.032,3.032,0,0,0-2.2-.641,3.228,3.228,0,0,0-2.083,1.058,3.041,3.041,0,0,0-.757,2.161s3.181,33.86,3.295,34.085a2.968,2.968,0,0,0,.266,1.136,3.1,3.1,0,0,0,1.742,1.553,3.22,3.22,0,0,0,1.137,0,3.307,3.307,0,0,0,1.137-.3,2.711,2.711,0,0,0,.947-.72,2.353,2.353,0,0,0,.567-.99,3.012,3.012,0,0,0,0-1.17c0-.416-.492-4.884-.492-4.884a8.051,8.051,0,0,1,1.515-5,7.91,7.91,0,0,1,3.562-3.376c.605-.338,3.333-1.4,3.333-1.4a22.79,22.79,0,0,0-15.379-42.907Z" transform="translate(-2058.912 -98.466)" fill="#fff"/>
    </g>
    <path id="Path_143" data-name="Path 143" d="M180.306,1675.55a3.792,3.792,0,0,0-1.439.416,3.891,3.891,0,0,0-1.157.945,3.823,3.823,0,0,0-.7,1.328,4.08,4.08,0,0,0,.3,2.915,4.928,4.928,0,0,0,.985,1.17,4.277,4.277,0,0,0,1.326.687,3.444,3.444,0,0,0,1.516,0,3.791,3.791,0,0,0,3.485-4.017,4.066,4.066,0,0,0-1.478-2.566,3.916,3.916,0,0,0-2.841-.8Z" transform="translate(-2055.571 -92.774)" fill="#fff"/>
    <path id="star_1" data-name="star 1" d="M415.16,1665.246l11.856,12.648-17.235-2.127-12.5,11.782,2.084-17.082-11.781-12.536,17.235,2.082,12.538-11.883Z" transform="translate(-2029.171 -96.209)" fill="none" stroke="#6e70f7" stroke-linecap="round" stroke-linejoin="round" stroke-width="2"/>
    <path id="circle_2" data-name="circle 2" d="M361.927,1792.809a10.021,10.021,0,0,0,8.561-7.235,9.879,9.879,0,0,0,0-5.829,10.24,10.24,0,0,0-3.3-4.85,10.839,10.839,0,0,0-5.454-2.161,10.081,10.081,0,0,0-7.159,17.915,10.238,10.238,0,0,0,7.348,2.16Z" transform="translate(-2033.78 -80.603)" fill="none" stroke="#6e70f7" stroke-linecap="round" stroke-linejoin="round" stroke-width="2"/>
    <path id="Path_146" data-name="Path 146" d="M382.3,1772.8a56.547,56.547,0,0,1,57.5-7.281" transform="translate(-2029.833 -82.095)" fill="none" stroke="#6e70f7" stroke-linecap="round" stroke-linejoin="round" stroke-width="2"/>
    <path id="circle_1" data-name="circle 1" d="M74.245,1952.422a12.649,12.649,0,0,0,7.046-2.115,12.864,12.864,0,0,0,4.621-5.649,12.372,12.372,0,0,0,.72-7.382,12.628,12.628,0,0,0-3.447-6.516,13.01,13.01,0,0,0-6.439-3.443,12.7,12.7,0,0,0-7.311.72,12.551,12.551,0,0,0-7.765,11.624,13.135,13.135,0,0,0,.947,4.85,13.468,13.468,0,0,0,2.727,4.085,12.61,12.61,0,0,0,4.129,2.768,12.83,12.83,0,0,0,4.811.945Z" transform="translate(-2070.003 -61.262)" fill="none" stroke="#6e70f7" stroke-linecap="round" stroke-linejoin="round" stroke-width="2"/>
    <path id="star_2" data-name="star 2" d="M162.78,1746.829l15.682,7.573-16.7,4.287-7.311,15.518-4.356-16.733-15.644-7.348,16.78-4.355,7.311-15.641Z" transform="translate(-2060.885 -85.936)" fill="none" stroke="#6e70f7" stroke-linecap="round" stroke-linejoin="round" stroke-width="2"/>
  </g>
</svg>
