<?xml version="1.0" standalone="no"?>
<!DOCTYPE svg PUBLIC "-//W3C//DTD SVG 20010904//EN"
 "http://www.w3.org/TR/2001/REC-SVG-20010904/DTD/svg10.dtd">
<svg version="1.0" xmlns="http://www.w3.org/2000/svg"
 width="822.000000pt" height="822.000000pt" viewBox="0 0 822.000000 822.000000"
 preserveAspectRatio="xMidYMid meet">
<metadata>
Created by potrace 1.14, written by Peter Selinger 2001-2017
</metadata>
<g transform="translate(0.000000,822.000000) scale(0.100000,-0.100000)"
fill="#000000" stroke="none">
<path d="M1340 6270 c0 -5 7 -10 15 -10 8 0 15 -7 15 -15 0 -16 -36 -24 -130
-28 -59 -2 -65 -4 -68 -24 -3 -18 -10 -23 -35 -23 -67 0 -107 -12 -107 -31 0
-13 -9 -19 -37 -21 -30 -2 -39 -7 -41 -25 -3 -18 -12 -23 -47 -29 -35 -5 -45
-11 -47 -28 -2 -13 -11 -22 -24 -24 -17 -2 -23 -12 -28 -47 -6 -35 -11 -44
-29 -47 -16 -2 -23 -11 -25 -30 -3 -22 -9 -28 -28 -28 -19 0 -24 -5 -24 -24 0
-49 -12 -84 -31 -89 -16 -4 -19 -15 -19 -57 0 -42 -3 -53 -19 -57 -11 -3 -21
-17 -25 -35 -8 -40 -8 -3006 0 -3047 5 -21 12 -31 25 -31 15 0 19 -9 21 -52 3
-46 6 -53 26 -56 20 -3 22 -9 22 -58 0 -50 2 -54 24 -54 21 0 25 -6 31 -49 5
-41 11 -50 28 -53 14 -2 23 -11 25 -25 2 -14 11 -23 25 -25 14 -2 23 -11 25
-25 3 -18 12 -23 48 -29 38 -5 44 -10 44 -30 0 -21 5 -24 36 -24 27 0 37 -5
41 -19 3 -11 15 -21 27 -23 16 -2 22 -11 24 -35 3 -32 4 -33 55 -34 29 -1 59
-2 67 -3 8 -2 40 -3 72 -4 51 -2 56 -4 51 -22 -5 -20 0 -20 2731 -20 2689 0
2736 0 2736 19 0 17 11 20 108 26 l108 7 -1 27 c0 24 4 26 50 31 42 4 51 9 53
26 2 17 12 23 48 29 35 5 44 10 44 26 0 18 5 21 40 23 9 1 16 13 18 29 3 21 9
27 28 27 19 0 24 5 24 25 0 20 5 25 25 25 20 0 25 5 25 25 0 21 5 25 29 25 27
0 30 3 36 50 5 39 11 50 25 50 15 0 19 11 25 60 6 55 9 60 31 60 l24 0 -1
1578 c0 867 -3 1591 -7 1607 -4 17 -14 30 -22 30 -10 0 -18 16 -24 53 -7 39
-13 52 -26 52 -14 0 -19 12 -24 59 -7 58 -8 60 -39 63 -24 2 -33 8 -35 26 -2
14 -10 22 -23 22 -13 0 -19 7 -19 24 0 19 -6 25 -27 28 -20 2 -29 9 -31 24 -3
21 -46 40 -79 35 -6 -1 -13 9 -15 21 -2 17 -11 24 -31 26 -23 3 -28 8 -24 22
4 16 -3 20 -49 26 -44 5 -54 10 -54 25 0 15 -8 19 -37 20 -21 1 -42 2 -48 4
-5 1 -38 3 -72 3 -63 2 -63 2 -63 32 l0 30 -1030 0 -1030 0 0 -30 c0 -25 -4
-30 -24 -30 -21 0 -25 -6 -31 -49 -5 -41 -11 -50 -28 -53 -14 -2 -23 -11 -25
-25 -2 -14 -11 -23 -25 -25 -16 -2 -23 -11 -25 -30 -2 -20 -9 -28 -22 -28 -12
0 -20 -8 -22 -22 -2 -15 -11 -24 -25 -26 -19 -3 -24 -12 -29 -52 -6 -46 -8
-49 -38 -52 -27 -3 -31 -7 -34 -35 -2 -24 -8 -33 -22 -33 -12 0 -20 -8 -22
-22 -2 -15 -11 -24 -24 -26 -17 -2 -23 -12 -28 -47 -6 -35 -11 -44 -29 -47
-15 -2 -23 -11 -25 -30 -2 -19 -10 -28 -25 -30 -16 -2 -23 -11 -25 -30 -2 -20
-9 -28 -22 -28 -12 0 -20 -8 -22 -22 -2 -15 -11 -24 -25 -26 -15 -2 -23 -10
-23 -22 0 -21 -29 -34 -54 -24 -9 3 -16 17 -16 30 0 17 -6 24 -20 24 -13 0
-20 7 -20 20 0 20 -4 22 -45 24 -14 1 -21 9 -23 28 -2 19 -10 28 -25 30 -14 2
-23 11 -25 27 -2 13 -12 25 -22 28 -19 5 -30 31 -30 71 0 17 -6 22 -24 22 -19
0 -25 6 -28 28 -2 19 -9 28 -24 30 -18 3 -23 12 -29 58 -7 55 -12 63 -32 43
-9 -9 -13 -2 -18 25 -5 26 -12 36 -25 36 -13 0 -20 9 -22 28 -2 19 -9 28 -25
30 -18 3 -23 12 -29 47 -6 40 -9 44 -38 47 -26 2 -32 8 -34 31 -2 19 -9 27
-22 27 -12 0 -20 8 -22 23 -2 16 -11 23 -30 25 -24 3 -28 8 -28 33 l0 29
-1025 0 c-677 0 -1025 -3 -1025 -10z m5340 -2200 l0 -1300 -2595 0 -2595 0 0
29 c0 20 -6 30 -20 34 -20 5 -20 14 -20 1247 0 1233 0 1242 20 1247 11 3 20
14 20 24 0 19 60 19 2595 19 l2595 0 0 -1300z"/>
<path d="M2345 4468 c-3 -29 -5 -231 -3 -448 l3 -395 423 -3 422 -2 -2 447 -3
448 -417 3 -417 2 -6 -52z"/>
<path d="M4968 4512 l-28 -3 0 -445 0 -444 414 0 c227 0 428 3 445 6 l31 7 0
418 0 418 -22 3 c-14 2 -23 10 -22 19 1 13 -11 18 -47 23 -49 7 -720 5 -771
-2z"/>
<path d="M7175 6100 c-3 -6 1 -7 9 -4 18 7 21 14 7 14 -6 0 -13 -4 -16 -10z"/>
</g>
</svg>
