<svg xmlns="http://www.w3.org/2000/svg" width="27" height="28" viewBox="0 0 27 28">
  <g id="Idea" transform="translate(-2.5 -2)">
    <path id="Path_160" data-name="Path 160" d="M16,6a1,1,0,0,0,1-1V3a1,1,0,1,0-2,0V5A1,1,0,0,0,16,6Z" fill="#56ac00"/>
    <path id="Path_161" data-name="Path 161" d="M28.5,14.5h-2a1,1,0,0,0,0,2h2a1,1,0,0,0,0-2Z" fill="#56ac00"/>
    <path id="Path_162" data-name="Path 162" d="M5.5,14.5h-2a1,1,0,0,0,0,2h2a1,1,0,0,0,0-2Z" fill="#56ac00"/>
    <path id="Path_163" data-name="Path 163" d="M23.425,9.075a.993.993,0,0,0,.707-.293l1.414-1.414a1,1,0,1,0-1.414-1.414L22.718,7.368a1,1,0,0,0,.707,1.707Z" fill="#56ac00"/>
    <path id="Path_164" data-name="Path 164" d="M7.868,8.782A1,1,0,1,0,9.282,7.368L7.868,5.954A1,1,0,1,0,6.454,7.368Z" fill="#56ac00"/>
    <path id="Path_165" data-name="Path 165" d="M21.669,9.166A8.5,8.5,0,1,0,10.646,22.1,3.457,3.457,0,0,1,12,24.744V27a3,3,0,0,0,3,3h2a3,3,0,0,0,3-3V24.827a3.276,3.276,0,0,1,1.193-2.6,8.5,8.5,0,0,0,.476-13.059ZM18,27a1,1,0,0,1-1,1H15a1,1,0,0,1-1-1V26h4Zm1.971-6.357A5.19,5.19,0,0,0,18.061,24H17V20h1a1,1,0,0,0,0-2H14a1,1,0,0,0,0,2h1v4H13.944a5.546,5.546,0,0,0-2.039-3.456,6.5,6.5,0,1,1,8.066.1Z" fill="#56ac00"/>
  </g>
</svg>
