<svg xmlns="http://www.w3.org/2000/svg" xmlns:xlink="http://www.w3.org/1999/xlink" width="309" height="128" viewBox="0 0 309 128">
  <defs>
    <clipPath id="clip-pluang-logo">
      <rect width="309" height="128"/>
    </clipPath>
  </defs>
  <g id="pluang-logo" clip-path="url(#clip-pluang-logo)">
    <g id="Group_29" data-name="Group 29" transform="translate(26 34)">
      <path id="Path_148" data-name="Path 148" d="M48.529,6.043A30.044,30.044,0,0,1,6.039,48.531C-5.691,36.8,36.794-5.69,48.53,6.043" transform="translate(2.756 2.758)" fill="#4a98f7"/>
      <path id="Path_149" data-name="Path 149" d="M8.794,51.288A30.044,30.044,0,0,1,51.284,8.8" transform="translate(0 0.001)" fill="#d2e5fd"/>
      <path id="Path_150" data-name="Path 150" d="M36.638,20.558C41.4,15.791,42.466,9.383,39.05,5.975,35.809,2.733,29,3.86,24.469,8.39,19.3,13.557,18.5,20.472,17.805,27.215c6.741-.687,13.665-1.491,18.833-6.657" transform="translate(12.233 2.829)" fill="#0070d1"/>
      <path id="Path_151" data-name="Path 151" d="M8.44,24.47C3.676,29.237,2.613,35.643,6.028,39.053c3.239,3.243,10.055,2.114,14.581-2.414,5.166-5.167,5.97-12.091,6.657-18.833C20.528,18.5,13.613,19.3,8.44,24.47" transform="translate(2.768 12.233)" fill="#a4cbfb"/>
      <path id="Path_152" data-name="Path 152" d="M88.373,45.353a3.489,3.489,0,0,1-3.489-3.489V3.488a3.489,3.489,0,0,1,6.978,0V41.864a3.489,3.489,0,0,1-3.489,3.489m21.282,0A13.75,13.75,0,0,1,95.919,31.618V18.227a3.49,3.49,0,0,1,6.979,0V31.618a6.756,6.756,0,1,0,13.512,0V18.227a3.49,3.49,0,0,1,6.979,0V31.618a13.75,13.75,0,0,1-13.734,13.734m-43.453,0H55.378a3.489,3.489,0,1,1,0-6.978H66.2a8.331,8.331,0,0,0,0-16.66,3.489,3.489,0,1,1,0-6.978,15.308,15.308,0,0,1,0,30.615" transform="translate(35.649)"/>
      <path id="Path_153" data-name="Path 153" d="M54.28,39.352a3.881,3.881,0,0,0,0,7.76h.186a3.148,3.148,0,0,0,3.141-3.143V39.352Zm.186,14.733H54.28a10.859,10.859,0,0,1,0-21.716H61.1a3.489,3.489,0,0,1,3.489,3.489v8.106A10.134,10.134,0,0,1,54.465,54.086ZM190.4,39.352a3.489,3.489,0,0,1-3.491-3.489V22.471a6.756,6.756,0,1,0-13.512,0V35.863a3.49,3.49,0,0,1-6.979,0V22.471a13.735,13.735,0,0,1,27.47,0V35.863a3.489,3.489,0,0,1-3.489,3.489m21.515-23.637a8.33,8.33,0,1,0,8.331,8.329,8.331,8.331,0,0,0-8.331-8.329m0,23.637a15.308,15.308,0,1,1,15.31-15.308,15.308,15.308,0,0,1-15.31,15.308" transform="translate(29.921 6.001)"/>
      <path id="Path_154" data-name="Path 154" d="M166.212,49.276a15.317,15.317,0,0,1-12.607-6.627,3.489,3.489,0,1,1,5.744-3.961,8.331,8.331,0,0,0,15.2-4.72V19.235a3.49,3.49,0,1,1,6.979,0V33.968a15.326,15.326,0,0,1-15.31,15.308M113.553,34.538a3.489,3.489,0,0,1-3.489-3.489V19.23a3.49,3.49,0,0,1,6.979,0V31.049a3.489,3.489,0,0,1-3.491,3.489" transform="translate(75.619 10.814)"/>
      <path id="Path_155" data-name="Path 155" d="M141.666,15.716A8.33,8.33,0,1,0,150,24.045a8.33,8.33,0,0,0-8.329-8.329m0,23.637a15.309,15.309,0,1,1,15.308-15.308,15.309,15.309,0,0,1-15.308,15.308m-86.294,0a3.489,3.489,0,0,1-3.489-3.489v-13A14.14,14.14,0,0,1,66.014,8.733a3.49,3.49,0,1,1,0,6.979,7.155,7.155,0,0,0-7.153,7.153v13a3.489,3.489,0,0,1-3.489,3.489" transform="translate(35.646 6)"/>
    </g>
  </g>
</svg>
